<svg width="1392" height="595" viewBox="0 0 1392 595" fill="none" xmlns="http://www.w3.org/2000/svg">
<path d="M276.485 119.396C299.585 94.9128 337.037 93.0672 360.137 115.273C383.238 137.479 383.238 175.328 360.139 199.811L234.662 332.802C211.562 357.285 174.11 359.13 151.01 336.924C127.909 314.718 127.909 276.869 151.008 252.386L276.485 119.396Z" fill="#FF9DD8"/>
<path d="M337.317 262.198C360.417 237.715 397.869 235.87 420.969 258.076C444.069 280.282 444.07 318.131 420.97 342.614L295.494 475.604C272.394 500.087 234.942 501.933 211.841 479.727C188.741 457.521 188.741 419.672 211.84 395.189L337.317 262.198Z" fill="#FF0099"/>
<path d="M377.417 238.666C410.912 238.666 438.065 264.769 438.065 296.968C438.065 329.167 410.912 355.27 377.417 355.27L195.473 355.27C161.979 355.27 134.826 329.167 134.826 296.968C134.826 264.769 161.979 238.666 195.473 238.666L377.417 238.666Z" fill="url(#paint0_linear_218_591)"/>
<path d="M577.759 368.667C566.53 368.667 556.457 366.784 547.54 363.018C538.623 359.095 531.523 353.838 526.239 347.247C521.12 340.656 518.313 333.358 517.817 325.355H552.742C553.402 330.377 555.962 334.535 560.42 337.831C565.044 341.126 570.741 342.774 577.511 342.774C584.116 342.774 589.235 341.519 592.868 339.008C596.666 336.497 598.565 333.28 598.565 329.357C598.565 325.12 596.253 321.981 591.63 319.941C587.171 317.744 579.988 315.39 570.081 312.879C559.842 310.525 551.421 308.093 544.816 305.582C538.376 303.071 532.761 299.226 527.973 294.048C523.349 288.869 521.037 281.886 521.037 273.097C521.037 265.879 523.184 259.288 527.477 253.324C531.936 247.361 538.211 242.653 546.302 239.201C554.558 235.748 564.218 234.022 575.282 234.022C591.63 234.022 604.675 237.945 614.418 245.792C624.16 253.481 629.527 263.917 630.518 277.099H597.327C596.831 271.921 594.52 267.84 590.391 264.859C586.428 261.72 581.062 260.151 574.291 260.151C568.016 260.151 563.145 261.249 559.677 263.446C556.375 265.643 554.723 268.703 554.723 272.627C554.723 277.021 557.035 280.395 561.659 282.749C566.283 284.946 573.466 287.221 583.208 289.575C593.116 291.929 601.29 294.361 607.73 296.872C614.17 299.383 619.702 303.306 624.325 308.642C629.114 313.821 631.591 320.726 631.756 329.357C631.756 336.889 629.527 343.637 625.069 349.601C620.775 355.564 614.5 360.272 606.244 363.724C598.152 367.02 588.658 368.667 577.759 368.667Z" fill="#0A0A0A"/>
<path d="M742.176 366.549L695.61 310.996V366.549H660.932V192.357H695.61V291.458L741.681 236.141H786.761L726.324 301.58L787.256 366.549H742.176Z" fill="#0A0A0A"/>
<path d="M823.879 220.605C817.769 220.605 812.65 218.8 808.522 215.191C804.559 211.424 802.577 206.795 802.577 201.302C802.577 195.81 804.559 191.259 808.522 187.649C812.65 183.883 817.769 182 823.879 182C829.988 182 835.025 183.883 838.988 187.649C843.116 191.259 845.18 195.81 845.18 201.302C845.18 206.795 843.116 211.424 838.988 215.191C835.025 218.8 829.988 220.605 823.879 220.605ZM840.97 236.141V366.549H806.292V236.141H840.97Z" fill="#0A0A0A"/>
<path d="M910.618 254.972C915.077 249.009 921.187 244.066 928.948 240.142C936.874 236.062 945.874 234.022 955.946 234.022C967.671 234.022 978.239 236.768 987.651 242.261C997.229 247.753 1004.74 255.6 1010.19 265.8C1015.81 275.844 1018.61 287.535 1018.61 300.874C1018.61 314.213 1015.81 326.061 1010.19 336.418C1004.74 346.619 997.229 354.544 987.651 360.193C978.239 365.843 967.671 368.667 955.946 368.667C945.874 368.667 936.957 366.706 929.196 362.783C921.6 358.859 915.407 353.916 910.618 347.953V413H875.941V236.141H910.618V254.972ZM983.193 300.874C983.193 293.028 981.459 286.28 977.991 280.63C974.689 274.824 970.23 270.43 964.616 267.448C959.166 264.466 953.222 262.976 946.782 262.976C940.507 262.976 934.562 264.545 928.948 267.683C923.499 270.665 919.04 275.059 915.572 280.865C912.27 286.672 910.618 293.498 910.618 301.345C910.618 309.191 912.27 316.018 915.572 321.824C919.04 327.63 923.499 332.103 928.948 335.242C934.562 338.223 940.507 339.714 946.782 339.714C953.222 339.714 959.166 338.145 964.616 335.006C970.23 331.868 974.689 327.395 977.991 321.589C981.459 315.782 983.193 308.877 983.193 300.874Z" fill="#0A0A0A"/>
<path d="M1074.96 254.972C1079.42 249.009 1085.52 244.066 1093.29 240.142C1101.21 236.062 1110.21 234.022 1120.28 234.022C1132.01 234.022 1142.58 236.768 1151.99 242.261C1161.57 247.753 1169.08 255.6 1174.53 265.8C1180.14 275.844 1182.95 287.535 1182.95 300.874C1182.95 314.213 1180.14 326.061 1174.53 336.418C1169.08 346.619 1161.57 354.544 1151.99 360.193C1142.58 365.843 1132.01 368.667 1120.28 368.667C1110.21 368.667 1101.29 366.706 1093.53 362.783C1085.94 358.859 1079.75 353.916 1074.96 347.953V413H1040.28V236.141H1074.96V254.972ZM1147.53 300.874C1147.53 293.028 1145.8 286.28 1142.33 280.63C1139.03 274.824 1134.57 270.43 1128.95 267.448C1123.5 264.466 1117.56 262.976 1111.12 262.976C1104.85 262.976 1098.9 264.545 1093.29 267.683C1087.84 270.665 1083.38 275.059 1079.91 280.865C1076.61 286.672 1074.96 293.498 1074.96 301.345C1074.96 309.191 1076.61 316.018 1079.91 321.824C1083.38 327.63 1087.84 332.103 1093.29 335.242C1098.9 338.223 1104.85 339.714 1111.12 339.714C1117.56 339.714 1123.5 338.145 1128.95 335.006C1134.57 331.868 1139.03 327.395 1142.33 321.589C1145.8 315.782 1147.53 308.877 1147.53 300.874Z" fill="#0A0A0A"/>
<path d="M1240.71 256.385C1245.17 249.48 1250.95 244.066 1258.05 240.142C1265.31 236.219 1273.57 234.257 1282.82 234.257V268.86H1273.65C1262.75 268.86 1254.5 271.293 1248.88 276.158C1243.43 281.022 1240.71 289.497 1240.71 301.58V366.549H1206.03V236.141H1240.71V256.385Z" fill="#0A0A0A"/>
<defs>
<linearGradient id="paint0_linear_218_591" x1="378.055" y1="347.782" x2="191.881" y2="216.987" gradientUnits="userSpaceOnUse">
<stop stop-color="#FF0099"/>
<stop offset="0.354167" stop-color="#FF0099"/>
<stop offset="1" stop-color="#FF9DD8"/>
</linearGradient>
</defs>
</svg>
